<svg version="1.1" xmlns="http://www.w3.org/2000/svg" width="1024" height="1024" viewBox="0 0 1024 1024">
    <path fill="#FFFFFF" d="M366.936 477.867c76.976 0 139.378-62.401 139.378-139.378s-62.401-139.378-139.378-139.378c-76.976 0-139.378 62.401-139.378 139.378s62.401 139.378 139.378 139.378zM88.181 717.756c0 43.457 35.229 78.689 78.687 78.689h400.137c32.593 0 60.558-19.814 72.503-48.060 3.982-9.415 6.184-19.763 6.184-30.629 0-18.085-3.044-36.164-10.886-51.803-3.753-7.481-8.604-14.404-14.746-20.503-10.024-9.956-23.291-21.271-40.317-32.387-0.92-0.597-1.852-1.2-2.794-1.798-43.61-27.745-110.918-53.754-210.012-53.754-140.849 0-217.481 52.543-253.123 87.939-18.977 18.842-25.632 45.562-25.632 72.306zM688.572 796.444h170.854c35.908 0 65.024-29.11 65.024-65.018 0-22.636-5.797-45.221-22.090-60.928-30.601-29.491-96.273-73.165-216.843-73.165-6.736 0-13.301 0.137-19.695 0.398l0.819 0.808c36.324 36.079 45.153 83.143 45.153 119.216 0 29.013-8.533 56.036-23.222 78.689zM685.517 517.689c65.98 0 119.467-53.488 119.467-119.467s-53.487-119.467-119.467-119.467c-65.982 0-119.47 53.487-119.47 119.467s53.488 119.467 119.47 119.467z"></path>
    <defs>
        <linearGradient id="Gradient">
          <stop offset="0%" stop-color="#2D83EC" />
          <stop offset="100%" stop-color="#1AC9FF" />
        </linearGradient>
      </defs>
</svg>